solid OpenSCAD_Model
  facet normal 1 0 0
    outer loop
      vertex -0.5 8.46666 50.8
      vertex -0.5 8.26666 24.6
      vertex -0.5 8.46666 24.6
    endloop
  endfacet
  facet normal 1 -0 0
    outer loop
      vertex -0.5 0.5 50.8
      vertex -0.5 8.26666 24.6
      vertex -0.5 8.46666 50.8
    endloop
  endfacet
  facet normal 1 0 0
    outer loop
      vertex -0.5 0.5 11.9
      vertex -0.5 8.26666 24.6
      vertex -0.5 0.5 50.8
    endloop
  endfacet
  facet normal 1 0 0
    outer loop
      vertex -0.5 8.26666 24.6
      vertex -0.5 0.5 11.9
      vertex -0.5 8.26666 11.9
    endloop
  endfacet
  facet normal 1 0 0
    outer loop
      vertex -0.5 -0.5 50.8
      vertex -0.5 -8.26666 24.6
      vertex -0.5 -0.5 11.9
    endloop
  endfacet
  facet normal 1 -0 0
    outer loop
      vertex -0.5 -8.46666 50.8
      vertex -0.5 -8.26666 24.6
      vertex -0.5 -0.5 50.8
    endloop
  endfacet
  facet normal 1 0 0
    outer loop
      vertex -0.5 -8.26666 24.6
      vertex -0.5 -8.46666 50.8
      vertex -0.5 -8.46666 24.6
    endloop
  endfacet
  facet normal 1 0 0
    outer loop
      vertex -0.5 -0.5 11.9
      vertex -0.5 -8.26666 24.6
      vertex -0.5 -8.26666 11.9
    endloop
  endfacet
  facet normal -0 0 1
    outer loop
      vertex 0.5 8.46666 50.8
      vertex 8.46666 -8.46666 50.8
      vertex 8.46666 8.46666 50.8
    endloop
  endfacet
  facet normal 0 0 1
    outer loop
      vertex 8.46666 -8.46666 50.8
      vertex 0.5 8.46666 50.8
      vertex 0.5 -8.46666 50.8
    endloop
  endfacet
  facet normal -0 0 1
    outer loop
      vertex -8.46666 -0.5 50.8
      vertex -0.5 -8.46666 50.8
      vertex -0.5 -0.5 50.8
    endloop
  endfacet
  facet normal 0 0 1
    outer loop
      vertex -0.5 -8.46666 50.8
      vertex -8.46666 -0.5 50.8
      vertex -8.46666 -8.46666 50.8
    endloop
  endfacet
  facet normal -0 0 1
    outer loop
      vertex -8.46666 8.46666 50.8
      vertex -0.5 0.5 50.8
      vertex -0.5 8.46666 50.8
    endloop
  endfacet
  facet normal 0 0 1
    outer loop
      vertex -0.5 0.5 50.8
      vertex -8.46666 8.46666 50.8
      vertex -8.46666 0.5 50.8
    endloop
  endfacet
  facet normal -1 0 0
    outer loop
      vertex 0.5 8.26666 11.9
      vertex 0.5 -8.26666 11.9
      vertex 0.5 8.26666 24.6
    endloop
  endfacet
  facet normal -1 0 0
    outer loop
      vertex 0.5 8.26666 24.6
      vertex 0.5 8.46666 50.8
      vertex 0.5 8.46666 24.6
    endloop
  endfacet
  facet normal -1 0 0
    outer loop
      vertex 0.5 -8.26666 24.6
      vertex 0.5 8.26666 24.6
      vertex 0.5 -8.26666 11.9
    endloop
  endfacet
  facet normal -1 0 0
    outer loop
      vertex 0.5 8.26666 24.6
      vertex 0.5 -8.26666 24.6
      vertex 0.5 8.46666 50.8
    endloop
  endfacet
  facet normal -1 0 0
    outer loop
      vertex 0.5 -8.46666 50.8
      vertex 0.5 -8.26666 24.6
      vertex 0.5 -8.46666 24.6
    endloop
  endfacet
  facet normal -1 0 0
    outer loop
      vertex 0.5 -8.26666 24.6
      vertex 0.5 -8.46666 50.8
      vertex 0.5 8.46666 50.8
    endloop
  endfacet
  facet normal -0 0 1
    outer loop
      vertex -8.26666 0.5 11.9
      vertex -0.5 -0.5 11.9
      vertex -0.5 0.5 11.9
    endloop
  endfacet
  facet normal 0 0 1
    outer loop
      vertex -0.5 -0.5 11.9
      vertex -8.26666 0.5 11.9
      vertex -8.26666 -0.5 11.9
    endloop
  endfacet
  facet normal 0 0 1
    outer loop
      vertex -0.5 0.5 11.9
      vertex 0.5 8.26666 11.9
      vertex -0.5 8.26666 11.9
    endloop
  endfacet
  facet normal 0 0 1
    outer loop
      vertex 0.5 8.26666 11.9
      vertex -0.5 0.5 11.9
      vertex 0.5 -8.26666 11.9
    endloop
  endfacet
  facet normal -0 0 1
    outer loop
      vertex -0.5 -0.5 11.9
      vertex 0.5 -8.26666 11.9
      vertex -0.5 0.5 11.9
    endloop
  endfacet
  facet normal 0 0 1
    outer loop
      vertex 0.5 -8.26666 11.9
      vertex -0.5 -0.5 11.9
      vertex -0.5 -8.26666 11.9
    endloop
  endfacet
  facet normal 0 1 0
    outer loop
      vertex 8.46666 8.46666 50.8
      vertex 0.5 8.46666 24.6
      vertex 0.5 8.46666 50.8
    endloop
  endfacet
  facet normal 0 1 0
    outer loop
      vertex 0.5 8.46666 24.6
      vertex 8.46666 8.46666 0
      vertex -0.5 8.46666 24.6
    endloop
  endfacet
  facet normal 0 1 -0
    outer loop
      vertex 8.46666 8.46666 0
      vertex 0.5 8.46666 24.6
      vertex 8.46666 8.46666 50.8
    endloop
  endfacet
  facet normal 0 1 -0
    outer loop
      vertex -0.5 8.46666 24.6
      vertex -8.46666 8.46666 50.8
      vertex -0.5 8.46666 50.8
    endloop
  endfacet
  facet normal 0 1 0
    outer loop
      vertex -0.5 8.46666 24.6
      vertex -8.46666 8.46666 0
      vertex -8.46666 8.46666 50.8
    endloop
  endfacet
  facet normal 0 1 0
    outer loop
      vertex -8.46666 8.46666 0
      vertex -0.5 8.46666 24.6
      vertex 8.46666 8.46666 0
    endloop
  endfacet
  facet normal -1 0 0
    outer loop
      vertex -8.46666 8.46666 0
      vertex -8.46666 0.5 24.6
      vertex -8.46666 8.46666 50.8
    endloop
  endfacet
  facet normal -1 0 0
    outer loop
      vertex -8.46666 8.46666 0
      vertex -8.46666 -0.5 24.6
      vertex -8.46666 0.5 24.6
    endloop
  endfacet
  facet normal -1 0 0
    outer loop
      vertex -8.46666 -8.46666 0
      vertex -8.46666 -0.5 24.6
      vertex -8.46666 8.46666 0
    endloop
  endfacet
  facet normal -1 0 0
    outer loop
      vertex -8.46666 -8.46666 50.8
      vertex -8.46666 -0.5 24.6
      vertex -8.46666 -8.46666 0
    endloop
  endfacet
  facet normal -1 0 0
    outer loop
      vertex -8.46666 -0.5 24.6
      vertex -8.46666 -8.46666 50.8
      vertex -8.46666 -0.5 50.8
    endloop
  endfacet
  facet normal -1 -0 0
    outer loop
      vertex -8.46666 8.46666 50.8
      vertex -8.46666 0.5 24.6
      vertex -8.46666 0.5 50.8
    endloop
  endfacet
  facet normal 1 -0 0
    outer loop
      vertex 8.46666 -8.46666 50.8
      vertex 8.46666 8.46666 0
      vertex 8.46666 8.46666 50.8
    endloop
  endfacet
  facet normal 1 0 0
    outer loop
      vertex 8.46666 8.46666 0
      vertex 8.46666 -8.46666 50.8
      vertex 8.46666 -8.46666 0
    endloop
  endfacet
  facet normal 0 0 -1
    outer loop
      vertex -8.46666 -8.46666 0
      vertex 8.46666 8.46666 0
      vertex 8.46666 -8.46666 0
    endloop
  endfacet
  facet normal -0 0 -1
    outer loop
      vertex 8.46666 8.46666 0
      vertex -8.46666 -8.46666 0
      vertex -8.46666 8.46666 0
    endloop
  endfacet
  facet normal 0 -1 0
    outer loop
      vertex -8.46666 -8.46666 50.8
      vertex -0.5 -8.46666 24.6
      vertex -0.5 -8.46666 50.8
    endloop
  endfacet
  facet normal 0 -1 -0
    outer loop
      vertex -0.5 -8.46666 24.6
      vertex -8.46666 -8.46666 0
      vertex 0.5 -8.46666 24.6
    endloop
  endfacet
  facet normal 0 -1 0
    outer loop
      vertex -8.46666 -8.46666 0
      vertex -0.5 -8.46666 24.6
      vertex -8.46666 -8.46666 50.8
    endloop
  endfacet
  facet normal 0 -1 0
    outer loop
      vertex 0.5 -8.46666 24.6
      vertex 8.46666 -8.46666 50.8
      vertex 0.5 -8.46666 50.8
    endloop
  endfacet
  facet normal 0 -1 0
    outer loop
      vertex 0.5 -8.46666 24.6
      vertex 8.46666 -8.46666 0
      vertex 8.46666 -8.46666 50.8
    endloop
  endfacet
  facet normal 0 -1 0
    outer loop
      vertex 8.46666 -8.46666 0
      vertex 0.5 -8.46666 24.6
      vertex -8.46666 -8.46666 0
    endloop
  endfacet
  facet normal -0 0 1
    outer loop
      vertex -0.5 -8.26666 24.6
      vertex 0.5 -8.46666 24.6
      vertex 0.5 -8.26666 24.6
    endloop
  endfacet
  facet normal 0 0 1
    outer loop
      vertex 0.5 -8.46666 24.6
      vertex -0.5 -8.26666 24.6
      vertex -0.5 -8.46666 24.6
    endloop
  endfacet
  facet normal 0 1 -0
    outer loop
      vertex 0.5 -8.26666 11.9
      vertex -0.5 -8.26666 24.6
      vertex 0.5 -8.26666 24.6
    endloop
  endfacet
  facet normal 0 1 0
    outer loop
      vertex -0.5 -8.26666 24.6
      vertex 0.5 -8.26666 11.9
      vertex -0.5 -8.26666 11.9
    endloop
  endfacet
  facet normal 0 -1 0
    outer loop
      vertex -8.26666 0.5 24.6
      vertex -8.46666 0.5 50.8
      vertex -8.46666 0.5 24.6
    endloop
  endfacet
  facet normal 0 -1 0
    outer loop
      vertex -8.46666 0.5 50.8
      vertex -8.26666 0.5 24.6
      vertex -0.5 0.5 50.8
    endloop
  endfacet
  facet normal 0 -1 0
    outer loop
      vertex -0.5 0.5 11.9
      vertex -8.26666 0.5 24.6
      vertex -8.26666 0.5 11.9
    endloop
  endfacet
  facet normal 0 -1 0
    outer loop
      vertex -8.26666 0.5 24.6
      vertex -0.5 0.5 11.9
      vertex -0.5 0.5 50.8
    endloop
  endfacet
  facet normal 0 1 0
    outer loop
      vertex -0.5 -0.5 50.8
      vertex -8.26666 -0.5 24.6
      vertex -8.46666 -0.5 50.8
    endloop
  endfacet
  facet normal 0 1 -0
    outer loop
      vertex -0.5 -0.5 11.9
      vertex -8.26666 -0.5 24.6
      vertex -0.5 -0.5 50.8
    endloop
  endfacet
  facet normal 0 1 0
    outer loop
      vertex -8.26666 -0.5 24.6
      vertex -0.5 -0.5 11.9
      vertex -8.26666 -0.5 11.9
    endloop
  endfacet
  facet normal 0 1 0
    outer loop
      vertex -8.46666 -0.5 50.8
      vertex -8.26666 -0.5 24.6
      vertex -8.46666 -0.5 24.6
    endloop
  endfacet
  facet normal -0 0 1
    outer loop
      vertex -8.46666 0.5 24.6
      vertex -8.26666 -0.5 24.6
      vertex -8.26666 0.5 24.6
    endloop
  endfacet
  facet normal 0 0 1
    outer loop
      vertex -8.26666 -0.5 24.6
      vertex -8.46666 0.5 24.6
      vertex -8.46666 -0.5 24.6
    endloop
  endfacet
  facet normal 1 -0 0
    outer loop
      vertex -8.26666 -0.5 24.6
      vertex -8.26666 0.5 11.9
      vertex -8.26666 0.5 24.6
    endloop
  endfacet
  facet normal 1 0 0
    outer loop
      vertex -8.26666 0.5 11.9
      vertex -8.26666 -0.5 24.6
      vertex -8.26666 -0.5 11.9
    endloop
  endfacet
  facet normal -0 0 1
    outer loop
      vertex -0.5 8.46666 24.6
      vertex 0.5 8.26666 24.6
      vertex 0.5 8.46666 24.6
    endloop
  endfacet
  facet normal 0 0 1
    outer loop
      vertex 0.5 8.26666 24.6
      vertex -0.5 8.46666 24.6
      vertex -0.5 8.26666 24.6
    endloop
  endfacet
  facet normal 0 -1 0
    outer loop
      vertex -0.5 8.26666 11.9
      vertex 0.5 8.26666 24.6
      vertex -0.5 8.26666 24.6
    endloop
  endfacet
  facet normal 0 -1 -0
    outer loop
      vertex 0.5 8.26666 24.6
      vertex -0.5 8.26666 11.9
      vertex 0.5 8.26666 11.9
    endloop
  endfacet
endsolid OpenSCAD_Model
