solid OpenSCAD_Model
  facet normal 1 0 0
    outer loop
      vertex -0.5 8.43806 50.8
      vertex -0.5 8.26666 24.6
      vertex -0.5 8.43806 24.6
    endloop
  endfacet
  facet normal 1 0 0
    outer loop
      vertex -0.5 8.26666 24.6
      vertex -0.5 -8.26666 24.6
      vertex -0.5 8.26666 11.9
    endloop
  endfacet
  facet normal 1 0 0
    outer loop
      vertex -0.5 8.43806 50.8
      vertex -0.5 -8.26666 24.6
      vertex -0.5 8.26666 24.6
    endloop
  endfacet
  facet normal 1 -0 0
    outer loop
      vertex -0.5 -8.43806 50.8
      vertex -0.5 -8.26666 24.6
      vertex -0.5 8.43806 50.8
    endloop
  endfacet
  facet normal 1 0 0
    outer loop
      vertex -0.5 -8.26666 24.6
      vertex -0.5 -8.43806 50.8
      vertex -0.5 -8.43806 24.6
    endloop
  endfacet
  facet normal 1 0 0
    outer loop
      vertex -0.5 8.26666 11.9
      vertex -0.5 -8.26666 24.6
      vertex -0.5 -8.26666 11.9
    endloop
  endfacet
  facet normal -1 0 0
    outer loop
      vertex -0.5 8.43806 0
      vertex -0.5 8.46666 24.6
      vertex -0.5 8.46666 0
    endloop
  endfacet
  facet normal -1 -0 0
    outer loop
      vertex -0.5 8.46666 24.6
      vertex -0.5 8.43806 0
      vertex -0.5 8.43806 24.6
    endloop
  endfacet
  facet normal -1 0 0
    outer loop
      vertex -0.5 -8.46666 0
      vertex -0.5 -8.43806 24.6
      vertex -0.5 -8.43806 0
    endloop
  endfacet
  facet normal -1 -0 0
    outer loop
      vertex -0.5 -8.43806 24.6
      vertex -0.5 -8.46666 0
      vertex -0.5 -8.46666 24.6
    endloop
  endfacet
  facet normal 0 0 1
    outer loop
      vertex 0.5 8.43806 50.8
      vertex 0.5 -8.43806 50.8
      vertex 8.93806 0 50.8
    endloop
  endfacet
  facet normal 0 0 1
    outer loop
      vertex -0.5 8.43806 50.8
      vertex -8.93806 0 50.8
      vertex -0.5 -8.43806 50.8
    endloop
  endfacet
  facet normal -1 0 0
    outer loop
      vertex 0.5 8.26666 11.9
      vertex 0.5 -8.26666 11.9
      vertex 0.5 8.26666 24.6
    endloop
  endfacet
  facet normal -1 0 0
    outer loop
      vertex 0.5 8.26666 24.6
      vertex 0.5 8.43806 50.8
      vertex 0.5 8.43806 24.6
    endloop
  endfacet
  facet normal -1 0 0
    outer loop
      vertex 0.5 -8.26666 24.6
      vertex 0.5 8.26666 24.6
      vertex 0.5 -8.26666 11.9
    endloop
  endfacet
  facet normal -1 0 0
    outer loop
      vertex 0.5 8.26666 24.6
      vertex 0.5 -8.26666 24.6
      vertex 0.5 8.43806 50.8
    endloop
  endfacet
  facet normal -1 0 0
    outer loop
      vertex 0.5 -8.43806 50.8
      vertex 0.5 -8.26666 24.6
      vertex 0.5 -8.43806 24.6
    endloop
  endfacet
  facet normal -1 0 0
    outer loop
      vertex 0.5 -8.26666 24.6
      vertex 0.5 -8.43806 50.8
      vertex 0.5 8.43806 50.8
    endloop
  endfacet
  facet normal 1 -0 0
    outer loop
      vertex 0.5 8.43806 24.6
      vertex 0.5 8.46666 0
      vertex 0.5 8.46666 24.6
    endloop
  endfacet
  facet normal 1 0 0
    outer loop
      vertex 0.5 8.46666 0
      vertex 0.5 8.43806 24.6
      vertex 0.5 8.43806 0
    endloop
  endfacet
  facet normal 1 -0 0
    outer loop
      vertex 0.5 -8.46666 24.6
      vertex 0.5 -8.43806 0
      vertex 0.5 -8.43806 24.6
    endloop
  endfacet
  facet normal 1 0 0
    outer loop
      vertex 0.5 -8.43806 0
      vertex 0.5 -8.46666 24.6
      vertex 0.5 -8.46666 0
    endloop
  endfacet
  facet normal -0 0 1
    outer loop
      vertex -0.5 8.26666 11.9
      vertex 0.5 -8.26666 11.9
      vertex 0.5 8.26666 11.9
    endloop
  endfacet
  facet normal 0 0 1
    outer loop
      vertex 0.5 -8.26666 11.9
      vertex -0.5 8.26666 11.9
      vertex -0.5 -8.26666 11.9
    endloop
  endfacet
  facet normal 0 0 -1
    outer loop
      vertex -0.5 -8.43806 0
      vertex -8.93806 0 0
      vertex -0.5 8.43806 0
    endloop
  endfacet
  facet normal 0 0 -1
    outer loop
      vertex -0.5 -8.43806 0
      vertex 0.5 -8.43806 0
      vertex 0.5 -8.46666 0
    endloop
  endfacet
  facet normal 0 0 -1
    outer loop
      vertex 0.5 -8.43806 0
      vertex -0.5 -8.43806 0
      vertex 0.5 8.43806 0
    endloop
  endfacet
  facet normal 0 0 -1
    outer loop
      vertex -0.5 -8.43806 0
      vertex 0.5 -8.46666 0
      vertex -0.5 -8.46666 0
    endloop
  endfacet
  facet normal 0 0 -1
    outer loop
      vertex -0.5 8.43806 0
      vertex 0.5 8.43806 0
      vertex -0.5 -8.43806 0
    endloop
  endfacet
  facet normal 0 0 -1
    outer loop
      vertex 0.5 8.43806 0
      vertex -0.5 8.43806 0
      vertex 0.5 8.46666 0
    endloop
  endfacet
  facet normal -0 0 -1
    outer loop
      vertex 0.5 8.46666 0
      vertex -0.5 8.43806 0
      vertex -0.5 8.46666 0
    endloop
  endfacet
  facet normal -0 0 -1
    outer loop
      vertex 8.93806 0 0
      vertex 0.5 -8.43806 0
      vertex 0.5 8.43806 0
    endloop
  endfacet
  facet normal 0 1 -0
    outer loop
      vertex 0.5 8.46666 0
      vertex -0.5 8.46666 24.6
      vertex 0.5 8.46666 24.6
    endloop
  endfacet
  facet normal 0 1 0
    outer loop
      vertex -0.5 8.46666 24.6
      vertex 0.5 8.46666 0
      vertex -0.5 8.46666 0
    endloop
  endfacet
  facet normal 0.707107 0.707107 0
    outer loop
      vertex 8.93806 0 50.8
      vertex 0.5 8.43806 24.6
      vertex 0.5 8.43806 50.8
    endloop
  endfacet
  facet normal 0.707107 0.707107 -0
    outer loop
      vertex 8.93806 0 0
      vertex 0.5 8.43806 24.6
      vertex 8.93806 0 50.8
    endloop
  endfacet
  facet normal 0.707107 0.707107 0
    outer loop
      vertex 0.5 8.43806 24.6
      vertex 8.93806 0 0
      vertex 0.5 8.43806 0
    endloop
  endfacet
  facet normal -0.707107 0.707107 0
    outer loop
      vertex -8.93806 0 0
      vertex -0.5 8.43806 24.6
      vertex -0.5 8.43806 0
    endloop
  endfacet
  facet normal -0.707107 0.707107 0
    outer loop
      vertex -8.93806 0 50.8
      vertex -0.5 8.43806 24.6
      vertex -8.93806 0 0
    endloop
  endfacet
  facet normal -0.707107 0.707107 0
    outer loop
      vertex -0.5 8.43806 24.6
      vertex -8.93806 0 50.8
      vertex -0.5 8.43806 50.8
    endloop
  endfacet
  facet normal -0.707107 -0.707107 -0
    outer loop
      vertex -0.5 -8.43806 24.6
      vertex -8.93806 0 0
      vertex -0.5 -8.43806 0
    endloop
  endfacet
  facet normal -0.707107 -0.707107 0
    outer loop
      vertex -8.93806 0 0
      vertex -0.5 -8.43806 24.6
      vertex -8.93806 0 50.8
    endloop
  endfacet
  facet normal -0.707107 -0.707107 0
    outer loop
      vertex -8.93806 0 50.8
      vertex -0.5 -8.43806 24.6
      vertex -0.5 -8.43806 50.8
    endloop
  endfacet
  facet normal 0.707107 -0.707107 0
    outer loop
      vertex 0.5 -8.43806 24.6
      vertex 8.93806 0 50.8
      vertex 0.5 -8.43806 50.8
    endloop
  endfacet
  facet normal 0.707107 -0.707107 0
    outer loop
      vertex 8.93806 0 50.8
      vertex 0.5 -8.43806 24.6
      vertex 8.93806 0 0
    endloop
  endfacet
  facet normal 0.707107 -0.707107 0
    outer loop
      vertex 8.93806 0 0
      vertex 0.5 -8.43806 24.6
      vertex 0.5 -8.43806 0
    endloop
  endfacet
  facet normal 0 -1 0
    outer loop
      vertex -0.5 -8.46666 0
      vertex 0.5 -8.46666 24.6
      vertex -0.5 -8.46666 24.6
    endloop
  endfacet
  facet normal 0 -1 -0
    outer loop
      vertex 0.5 -8.46666 24.6
      vertex -0.5 -8.46666 0
      vertex 0.5 -8.46666 0
    endloop
  endfacet
  facet normal 0 0 1
    outer loop
      vertex -0.5 -8.43806 24.6
      vertex 0.5 -8.43806 24.6
      vertex 0.5 -8.26666 24.6
    endloop
  endfacet
  facet normal 0 0 1
    outer loop
      vertex -0.5 -8.43806 24.6
      vertex 0.5 -8.26666 24.6
      vertex -0.5 -8.26666 24.6
    endloop
  endfacet
  facet normal 0 0 1
    outer loop
      vertex 0.5 -8.43806 24.6
      vertex -0.5 -8.43806 24.6
      vertex 0.5 -8.46666 24.6
    endloop
  endfacet
  facet normal 0 0 1
    outer loop
      vertex 0.5 -8.46666 24.6
      vertex -0.5 -8.43806 24.6
      vertex -0.5 -8.46666 24.6
    endloop
  endfacet
  facet normal 0 1 -0
    outer loop
      vertex 0.5 -8.26666 11.9
      vertex -0.5 -8.26666 24.6
      vertex 0.5 -8.26666 24.6
    endloop
  endfacet
  facet normal 0 1 0
    outer loop
      vertex -0.5 -8.26666 24.6
      vertex 0.5 -8.26666 11.9
      vertex -0.5 -8.26666 11.9
    endloop
  endfacet
  facet normal 0 0 1
    outer loop
      vertex -0.5 8.43806 24.6
      vertex 0.5 8.43806 24.6
      vertex 0.5 8.46666 24.6
    endloop
  endfacet
  facet normal 0 0 1
    outer loop
      vertex -0.5 8.43806 24.6
      vertex 0.5 8.46666 24.6
      vertex -0.5 8.46666 24.6
    endloop
  endfacet
  facet normal 0 0 1
    outer loop
      vertex 0.5 8.43806 24.6
      vertex -0.5 8.43806 24.6
      vertex 0.5 8.26666 24.6
    endloop
  endfacet
  facet normal 0 0 1
    outer loop
      vertex 0.5 8.26666 24.6
      vertex -0.5 8.43806 24.6
      vertex -0.5 8.26666 24.6
    endloop
  endfacet
  facet normal 0 -1 0
    outer loop
      vertex -0.5 8.26666 11.9
      vertex 0.5 8.26666 24.6
      vertex -0.5 8.26666 24.6
    endloop
  endfacet
  facet normal 0 -1 -0
    outer loop
      vertex 0.5 8.26666 24.6
      vertex -0.5 8.26666 11.9
      vertex 0.5 8.26666 11.9
    endloop
  endfacet
endsolid OpenSCAD_Model
