solid OpenSCAD_Model
  facet normal 1 0 0
    outer loop
      vertex -0.5 8.46666 50.8
      vertex -0.5 8.00646 24.6
      vertex -0.5 8.46666 24.6
    endloop
  endfacet
  facet normal 1 0 0
    outer loop
      vertex -0.5 8.00646 24.6
      vertex -0.5 -8.00613 24.6
      vertex -0.5 8.00646 11.9
    endloop
  endfacet
  facet normal 1 0 0
    outer loop
      vertex -0.5 8.46666 50.8
      vertex -0.5 -8.00613 24.6
      vertex -0.5 8.00646 24.6
    endloop
  endfacet
  facet normal 1 -0 0
    outer loop
      vertex -0.5 -8.46666 50.8
      vertex -0.5 -8.00613 24.6
      vertex -0.5 8.46666 50.8
    endloop
  endfacet
  facet normal 1 0 0
    outer loop
      vertex -0.5 -8.00613 24.6
      vertex -0.5 -8.46666 50.8
      vertex -0.5 -8.46666 24.6
    endloop
  endfacet
  facet normal 1 0 0
    outer loop
      vertex -0.5 8.00646 11.9
      vertex -0.5 -8.00613 24.6
      vertex -0.5 -8.00613 11.9
    endloop
  endfacet
  facet normal -0 0 1
    outer loop
      vertex 0.5 8.46666 50.8
      vertex 8.46666 -8.46666 50.8
      vertex 8.46666 8.46666 50.8
    endloop
  endfacet
  facet normal 0 0 1
    outer loop
      vertex 8.46666 -8.46666 50.8
      vertex 0.5 8.46666 50.8
      vertex 0.5 -8.46666 50.8
    endloop
  endfacet
  facet normal -0 0 1
    outer loop
      vertex -8.46666 8.46666 50.8
      vertex -0.5 -8.46666 50.8
      vertex -0.5 8.46666 50.8
    endloop
  endfacet
  facet normal 0 0 1
    outer loop
      vertex -0.5 -8.46666 50.8
      vertex -8.46666 8.46666 50.8
      vertex -8.46666 -8.46666 50.8
    endloop
  endfacet
  facet normal -1 0 0
    outer loop
      vertex 0.5 8.00613 11.9
      vertex 0.5 -8.00646 11.9
      vertex 0.5 8.00613 24.6
    endloop
  endfacet
  facet normal -1 0 0
    outer loop
      vertex 0.5 8.00613 24.6
      vertex 0.5 8.46666 50.8
      vertex 0.5 8.46666 24.6
    endloop
  endfacet
  facet normal -1 0 0
    outer loop
      vertex 0.5 -8.00646 24.6
      vertex 0.5 8.00613 24.6
      vertex 0.5 -8.00646 11.9
    endloop
  endfacet
  facet normal -1 0 0
    outer loop
      vertex 0.5 8.00613 24.6
      vertex 0.5 -8.00646 24.6
      vertex 0.5 8.46666 50.8
    endloop
  endfacet
  facet normal -1 0 0
    outer loop
      vertex 0.5 -8.46666 50.8
      vertex 0.5 -8.00646 24.6
      vertex 0.5 -8.46666 24.6
    endloop
  endfacet
  facet normal -1 0 0
    outer loop
      vertex 0.5 -8.00646 24.6
      vertex 0.5 -8.46666 50.8
      vertex 0.5 8.46666 50.8
    endloop
  endfacet
  facet normal -0 0 1
    outer loop
      vertex -0.5 -8.00613 11.9
      vertex 0.5 -8.00646 11.9
      vertex 0.5 8.00613 11.9
    endloop
  endfacet
  facet normal -0 0 1
    outer loop
      vertex -0.5 8.00646 11.9
      vertex 0.5 8.00613 11.9
      vertex 0.430192 8.26666 11.9
    endloop
  endfacet
  facet normal 0 0 1
    outer loop
      vertex 0.5 -8.00646 11.9
      vertex -0.5 -8.00613 11.9
      vertex 0.430282 -8.26666 11.9
    endloop
  endfacet
  facet normal 0 0 1
    outer loop
      vertex -0.5 8.00646 11.9
      vertex 0.430192 8.26666 11.9
      vertex -0.430282 8.26666 11.9
    endloop
  endfacet
  facet normal 0 0 1
    outer loop
      vertex 0.5 8.00613 11.9
      vertex -0.5 8.00646 11.9
      vertex -0.5 -8.00613 11.9
    endloop
  endfacet
  facet normal 0 0 1
    outer loop
      vertex 0.430282 -8.26666 11.9
      vertex -0.5 -8.00613 11.9
      vertex -0.430192 -8.26666 11.9
    endloop
  endfacet
  facet normal 0 0 -1
    outer loop
      vertex 8.46666 -8.46666 0
      vertex 0.583657 8.46666 0
      vertex 8.46666 8.46666 0
    endloop
  endfacet
  facet normal 0 0 -1
    outer loop
      vertex 0.58 -8.46666 0
      vertex 0.583657 8.46666 0
      vertex 8.46666 -8.46666 0
    endloop
  endfacet
  facet normal 0 0 -1
    outer loop
      vertex 0.576603 8.46666 0
      vertex 0.583657 8.46666 0
      vertex 0.58 -8.46666 0
    endloop
  endfacet
  facet normal 0 0 -1
    outer loop
      vertex 0.583657 8.46666 0
      vertex 0.576603 8.46666 0
      vertex 0.583184 8.46842 0
    endloop
  endfacet
  facet normal 0 0 -1
    outer loop
      vertex -0.576603 -8.46666 0
      vertex 0.576603 8.46666 0
      vertex 0.58 -8.46666 0
    endloop
  endfacet
  facet normal 0 0 -1
    outer loop
      vertex -0.576603 -8.46666 0
      vertex -0.58 8.46666 0
      vertex 0.576603 8.46666 0
    endloop
  endfacet
  facet normal 0 0 -1
    outer loop
      vertex -0.583657 -8.46666 0
      vertex -0.576603 -8.46666 0
      vertex -0.583184 -8.46842 0
    endloop
  endfacet
  facet normal 0 0 -1
    outer loop
      vertex -0.576603 -8.46666 0
      vertex -0.583657 -8.46666 0
      vertex -0.58 8.46666 0
    endloop
  endfacet
  facet normal 0 0 -1
    outer loop
      vertex -8.46666 -8.46666 0
      vertex -0.58 8.46666 0
      vertex -0.583657 -8.46666 0
    endloop
  endfacet
  facet normal -0 0 -1
    outer loop
      vertex -0.58 8.46666 0
      vertex -8.46666 -8.46666 0
      vertex -8.46666 8.46666 0
    endloop
  endfacet
  facet normal 0 1 0
    outer loop
      vertex 8.46666 8.46666 50.8
      vertex 0.583657 8.46666 24.6
      vertex 0.5 8.46666 50.8
    endloop
  endfacet
  facet normal 0 1 -0
    outer loop
      vertex 8.46666 8.46666 0
      vertex 0.583657 8.46666 24.6
      vertex 8.46666 8.46666 50.8
    endloop
  endfacet
  facet normal 0 1 0
    outer loop
      vertex 0.583657 8.46666 24.6
      vertex 8.46666 8.46666 0
      vertex 0.583657 8.46666 0
    endloop
  endfacet
  facet normal 0 1 0
    outer loop
      vertex 0.5 8.46666 50.8
      vertex 0.583657 8.46666 24.6
      vertex 0.5 8.46666 24.6
    endloop
  endfacet
  facet normal 0 1 0
    outer loop
      vertex -0.58 8.46666 24.6
      vertex -0.5 8.46666 50.8
      vertex -0.5 8.46666 24.6
    endloop
  endfacet
  facet normal 0 1 0
    outer loop
      vertex -0.5 8.46666 50.8
      vertex -0.58 8.46666 24.6
      vertex -8.46666 8.46666 50.8
    endloop
  endfacet
  facet normal 0 1 0
    outer loop
      vertex -8.46666 8.46666 0
      vertex -0.58 8.46666 24.6
      vertex -0.58 8.46666 0
    endloop
  endfacet
  facet normal 0 1 0
    outer loop
      vertex -0.58 8.46666 24.6
      vertex -8.46666 8.46666 0
      vertex -8.46666 8.46666 50.8
    endloop
  endfacet
  facet normal -1 0 0
    outer loop
      vertex -8.46666 -8.46666 0
      vertex -8.46666 8.46666 50.8
      vertex -8.46666 8.46666 0
    endloop
  endfacet
  facet normal -1 -0 0
    outer loop
      vertex -8.46666 8.46666 50.8
      vertex -8.46666 -8.46666 0
      vertex -8.46666 -8.46666 50.8
    endloop
  endfacet
  facet normal 1 -0 0
    outer loop
      vertex 8.46666 -8.46666 50.8
      vertex 8.46666 8.46666 0
      vertex 8.46666 8.46666 50.8
    endloop
  endfacet
  facet normal 1 0 0
    outer loop
      vertex 8.46666 8.46666 0
      vertex 8.46666 -8.46666 50.8
      vertex 8.46666 -8.46666 0
    endloop
  endfacet
  facet normal 0 -1 0
    outer loop
      vertex 0.58 -8.46666 24.6
      vertex 0.5 -8.46666 50.8
      vertex 0.5 -8.46666 24.6
    endloop
  endfacet
  facet normal 0 -1 0
    outer loop
      vertex 0.5 -8.46666 50.8
      vertex 0.58 -8.46666 24.6
      vertex 8.46666 -8.46666 50.8
    endloop
  endfacet
  facet normal 0 -1 0
    outer loop
      vertex 8.46666 -8.46666 0
      vertex 0.58 -8.46666 24.6
      vertex 0.58 -8.46666 0
    endloop
  endfacet
  facet normal 0 -1 0
    outer loop
      vertex 0.58 -8.46666 24.6
      vertex 8.46666 -8.46666 0
      vertex 8.46666 -8.46666 50.8
    endloop
  endfacet
  facet normal 0 -1 0
    outer loop
      vertex -8.46666 -8.46666 50.8
      vertex -0.583657 -8.46666 24.6
      vertex -0.5 -8.46666 50.8
    endloop
  endfacet
  facet normal 0 -1 0
    outer loop
      vertex -8.46666 -8.46666 0
      vertex -0.583657 -8.46666 24.6
      vertex -8.46666 -8.46666 50.8
    endloop
  endfacet
  facet normal 0 -1 -0
    outer loop
      vertex -0.583657 -8.46666 24.6
      vertex -8.46666 -8.46666 0
      vertex -0.583657 -8.46666 0
    endloop
  endfacet
  facet normal 0 -1 -0
    outer loop
      vertex -0.5 -8.46666 50.8
      vertex -0.583657 -8.46666 24.6
      vertex -0.5 -8.46666 24.6
    endloop
  endfacet
  facet normal 0 0 1
    outer loop
      vertex 0.5 8.46666 24.6
      vertex 0.430192 8.26666 24.6
      vertex 0.5 8.00613 24.6
    endloop
  endfacet
  facet normal 0 0 1
    outer loop
      vertex 0.5 8.46666 24.6
      vertex -0.430282 8.26666 24.6
      vertex 0.430192 8.26666 24.6
    endloop
  endfacet
  facet normal -0 0 1
    outer loop
      vertex -0.5 8.46666 24.6
      vertex -0.430282 8.26666 24.6
      vertex 0.5 8.46666 24.6
    endloop
  endfacet
  facet normal 0 0 1
    outer loop
      vertex -0.430282 8.26666 24.6
      vertex -0.5 8.46666 24.6
      vertex -0.5 8.00646 24.6
    endloop
  endfacet
  facet normal 0 0 1
    outer loop
      vertex 0.583657 8.46666 24.6
      vertex 0.583184 8.46842 24.6
      vertex 0.576603 8.46666 24.6
    endloop
  endfacet
  facet normal 0 0 0
    outer loop
      vertex 0.576603 8.46666 24.6
      vertex -0.58 8.46666 24.6
      vertex -0.5 8.46666 24.6
    endloop
  endfacet
  facet normal 0 0 0
    outer loop
      vertex -0.5 8.46666 24.6
      vertex 0.5 8.46666 24.6
      vertex 0.583657 8.46666 24.6
    endloop
  endfacet
  facet normal 0 0 0
    outer loop
      vertex 0.583657 8.46666 24.6
      vertex 0.576603 8.46666 24.6
      vertex -0.5 8.46666 24.6
    endloop
  endfacet
  facet normal 0 -1 0
    outer loop
      vertex -0.430282 8.26666 11.9
      vertex 0.430192 8.26666 24.6
      vertex -0.430282 8.26666 24.6
    endloop
  endfacet
  facet normal 0 -1 -0
    outer loop
      vertex 0.430192 8.26666 24.6
      vertex -0.430282 8.26666 11.9
      vertex 0.430192 8.26666 11.9
    endloop
  endfacet
  facet normal 0 1 -0
    outer loop
      vertex 0.576603 8.46666 0
      vertex -0.58 8.46666 24.6
      vertex 0.576603 8.46666 24.6
    endloop
  endfacet
  facet normal 0 1 0
    outer loop
      vertex -0.58 8.46666 24.6
      vertex 0.576603 8.46666 0
      vertex -0.58 8.46666 0
    endloop
  endfacet
  facet normal -0.258357 0.96605 0
    outer loop
      vertex 0.583184 8.46842 0
      vertex 0.576603 8.46666 24.6
      vertex 0.583184 8.46842 24.6
    endloop
  endfacet
  facet normal -0.258357 0.96605 0
    outer loop
      vertex 0.576603 8.46666 24.6
      vertex 0.583184 8.46842 0
      vertex 0.576603 8.46666 0
    endloop
  endfacet
  facet normal -0.965927 -0.258816 0
    outer loop
      vertex 0.5 8.00613 11.9
      vertex 0.430192 8.26666 24.6
      vertex 0.430192 8.26666 11.9
    endloop
  endfacet
  facet normal -0.965927 -0.258816 0
    outer loop
      vertex 0.430192 8.26666 24.6
      vertex 0.5 8.00613 11.9
      vertex 0.5 8.00613 24.6
    endloop
  endfacet
  facet normal 0.965732 0.259541 0
    outer loop
      vertex 0.583657 8.46666 24.6
      vertex 0.583184 8.46842 0
      vertex 0.583184 8.46842 24.6
    endloop
  endfacet
  facet normal 0.965732 0.259541 0
    outer loop
      vertex 0.583184 8.46842 0
      vertex 0.583657 8.46666 24.6
      vertex 0.583657 8.46666 0
    endloop
  endfacet
  facet normal 0.965928 -0.258811 0
    outer loop
      vertex -0.5 8.00646 24.6
      vertex -0.430282 8.26666 11.9
      vertex -0.430282 8.26666 24.6
    endloop
  endfacet
  facet normal 0.965928 -0.258811 0
    outer loop
      vertex -0.430282 8.26666 11.9
      vertex -0.5 8.00646 24.6
      vertex -0.5 8.00646 11.9
    endloop
  endfacet
  facet normal 0 0 1
    outer loop
      vertex -0.576603 -8.46666 24.6
      vertex -0.583657 -8.46666 24.6
      vertex -0.583184 -8.46842 24.6
    endloop
  endfacet
  facet normal -0 0 1
    outer loop
      vertex 0.430282 -8.26666 24.6
      vertex 0.5 -8.46666 24.6
      vertex 0.5 -8.00646 24.6
    endloop
  endfacet
  facet normal -0 0 1
    outer loop
      vertex -0.430192 -8.26666 24.6
      vertex 0.5 -8.46666 24.6
      vertex 0.430282 -8.26666 24.6
    endloop
  endfacet
  facet normal 0 0 1
    outer loop
      vertex -0.430192 -8.26666 24.6
      vertex -0.5 -8.46666 24.6
      vertex 0.5 -8.46666 24.6
    endloop
  endfacet
  facet normal 0 0 1
    outer loop
      vertex -0.5 -8.46666 24.6
      vertex -0.430192 -8.26666 24.6
      vertex -0.5 -8.00613 24.6
    endloop
  endfacet
  facet normal 0 0 0
    outer loop
      vertex 0.5 -8.46666 24.6
      vertex -0.5 -8.46666 24.6
      vertex -0.583657 -8.46666 24.6
    endloop
  endfacet
  facet normal 0 0 0
    outer loop
      vertex -0.576603 -8.46666 24.6
      vertex 0.58 -8.46666 24.6
      vertex 0.5 -8.46666 24.6
    endloop
  endfacet
  facet normal 0 0 0
    outer loop
      vertex -0.583657 -8.46666 24.6
      vertex -0.576603 -8.46666 24.6
      vertex 0.5 -8.46666 24.6
    endloop
  endfacet
  facet normal 0 1 -0
    outer loop
      vertex 0.430282 -8.26666 11.9
      vertex -0.430192 -8.26666 24.6
      vertex 0.430282 -8.26666 24.6
    endloop
  endfacet
  facet normal 0 1 0
    outer loop
      vertex -0.430192 -8.26666 24.6
      vertex 0.430282 -8.26666 11.9
      vertex -0.430192 -8.26666 11.9
    endloop
  endfacet
  facet normal 0 -1 0
    outer loop
      vertex -0.576603 -8.46666 0
      vertex 0.58 -8.46666 24.6
      vertex -0.576603 -8.46666 24.6
    endloop
  endfacet
  facet normal 0 -1 -0
    outer loop
      vertex 0.58 -8.46666 24.6
      vertex -0.576603 -8.46666 0
      vertex 0.58 -8.46666 0
    endloop
  endfacet
  facet normal 0.258357 -0.96605 0
    outer loop
      vertex -0.583184 -8.46842 0
      vertex -0.576603 -8.46666 24.6
      vertex -0.583184 -8.46842 24.6
    endloop
  endfacet
  facet normal 0.258357 -0.96605 0
    outer loop
      vertex -0.576603 -8.46666 24.6
      vertex -0.583184 -8.46842 0
      vertex -0.576603 -8.46666 0
    endloop
  endfacet
  facet normal 0.965927 0.258816 0
    outer loop
      vertex -0.430192 -8.26666 24.6
      vertex -0.5 -8.00613 11.9
      vertex -0.5 -8.00613 24.6
    endloop
  endfacet
  facet normal 0.965927 0.258816 0
    outer loop
      vertex -0.5 -8.00613 11.9
      vertex -0.430192 -8.26666 24.6
      vertex -0.430192 -8.26666 11.9
    endloop
  endfacet
  facet normal -0.965732 -0.259541 0
    outer loop
      vertex -0.583184 -8.46842 0
      vertex -0.583657 -8.46666 24.6
      vertex -0.583657 -8.46666 0
    endloop
  endfacet
  facet normal -0.965732 -0.259541 0
    outer loop
      vertex -0.583657 -8.46666 24.6
      vertex -0.583184 -8.46842 0
      vertex -0.583184 -8.46842 24.6
    endloop
  endfacet
  facet normal -0.965928 0.258811 0
    outer loop
      vertex 0.430282 -8.26666 11.9
      vertex 0.5 -8.00646 24.6
      vertex 0.5 -8.00646 11.9
    endloop
  endfacet
  facet normal -0.965928 0.258811 0
    outer loop
      vertex 0.5 -8.00646 24.6
      vertex 0.430282 -8.26666 11.9
      vertex 0.430282 -8.26666 24.6
    endloop
  endfacet
endsolid OpenSCAD_Model
