solid OpenSCAD_Model
  facet normal 1 0 0
    outer loop
      vertex 16.93 7.965 50.8
      vertex 16.93 0 50.8
      vertex 16.93 7.965 25.4
    endloop
  endfacet
  facet normal 1 0 0
    outer loop
      vertex 16.93 8.965 25.4
      vertex 16.93 16.93 50.8
      vertex 16.93 8.965 50.8
    endloop
  endfacet
  facet normal 1 0 0
    outer loop
      vertex 16.93 16.93 50.8
      vertex 16.93 8.965 25.4
      vertex 16.93 16.93 0
    endloop
  endfacet
  facet normal 1 -0 0
    outer loop
      vertex 16.93 7.965 25.4
      vertex 16.93 16.93 0
      vertex 16.93 8.965 25.4
    endloop
  endfacet
  facet normal 1 0 0
    outer loop
      vertex 16.93 7.965 25.4
      vertex 16.93 0 0
      vertex 16.93 16.93 0
    endloop
  endfacet
  facet normal 1 0 0
    outer loop
      vertex 16.93 0 0
      vertex 16.93 7.965 25.4
      vertex 16.93 0 50.8
    endloop
  endfacet
  facet normal 0 0 1
    outer loop
      vertex 7.965 16.93 50.8
      vertex 2 14.93 50.8
      vertex 7.965 14.93 50.8
    endloop
  endfacet
  facet normal -0 0 1
    outer loop
      vertex 0 16.93 50.8
      vertex 2 14.93 50.8
      vertex 7.965 16.93 50.8
    endloop
  endfacet
  facet normal 0 0 1
    outer loop
      vertex 0 8.965 50.8
      vertex 2 14.93 50.8
      vertex 0 16.93 50.8
    endloop
  endfacet
  facet normal 0 0 1
    outer loop
      vertex 2 14.93 50.8
      vertex 0 8.965 50.8
      vertex 2 8.965 50.8
    endloop
  endfacet
  facet normal -0 0 1
    outer loop
      vertex 14.93 14.93 50.8
      vertex 16.93 8.965 50.8
      vertex 16.93 16.93 50.8
    endloop
  endfacet
  facet normal 0 0 1
    outer loop
      vertex 16.83 8.965 50.8
      vertex 14.93 14.93 50.8
      vertex 16.83 7.965 50.8
    endloop
  endfacet
  facet normal 0 0 1
    outer loop
      vertex 16.93 8.965 50.8
      vertex 14.93 14.93 50.8
      vertex 16.83 8.965 50.8
    endloop
  endfacet
  facet normal -0 0 1
    outer loop
      vertex 8.965 16.93 50.8
      vertex 14.93 14.93 50.8
      vertex 16.93 16.93 50.8
    endloop
  endfacet
  facet normal 0 0 1
    outer loop
      vertex 14.93 14.93 50.8
      vertex 8.965 16.93 50.8
      vertex 8.965 14.93 50.8
    endloop
  endfacet
  facet normal 0 0 1
    outer loop
      vertex 14.93 2 50.8
      vertex 16.93 7.965 50.8
      vertex 16.83 7.965 50.8
    endloop
  endfacet
  facet normal 0 0 1
    outer loop
      vertex 14.93 2 50.8
      vertex 16.83 7.965 50.8
      vertex 14.93 14.93 50.8
    endloop
  endfacet
  facet normal 0 0 1
    outer loop
      vertex 16.93 7.965 50.8
      vertex 14.93 2 50.8
      vertex 16.93 0 50.8
    endloop
  endfacet
  facet normal 0 0 1
    outer loop
      vertex 8.965 0 50.8
      vertex 14.93 2 50.8
      vertex 8.965 2 50.8
    endloop
  endfacet
  facet normal 0 0 1
    outer loop
      vertex 14.93 2 50.8
      vertex 8.965 0 50.8
      vertex 16.93 0 50.8
    endloop
  endfacet
  facet normal 0 0 1
    outer loop
      vertex 2 7.965 50.8
      vertex 0 7.965 50.8
      vertex 2 2 50.8
    endloop
  endfacet
  facet normal -0 0 1
    outer loop
      vertex 2 2 50.8
      vertex 7.965 0 50.8
      vertex 7.965 2 50.8
    endloop
  endfacet
  facet normal 0 0 1
    outer loop
      vertex 2 2 50.8
      vertex 0 0 50.8
      vertex 7.965 0 50.8
    endloop
  endfacet
  facet normal 0 0 1
    outer loop
      vertex 0 0 50.8
      vertex 2 2 50.8
      vertex 0 7.965 50.8
    endloop
  endfacet
  facet normal 0 0 -1
    outer loop
      vertex 0 0 0
      vertex 16.93 16.93 0
      vertex 16.93 0 0
    endloop
  endfacet
  facet normal -0 0 -1
    outer loop
      vertex 16.93 16.93 0
      vertex 0 0 0
      vertex 0 16.93 0
    endloop
  endfacet
  facet normal -1 0 0
    outer loop
      vertex 0 16.93 0
      vertex 0 8.965 25.4
      vertex 0 16.93 50.8
    endloop
  endfacet
  facet normal -1 0 0
    outer loop
      vertex 0 16.93 0
      vertex 0 7.965 25.4
      vertex 0 8.965 25.4
    endloop
  endfacet
  facet normal -1 0 0
    outer loop
      vertex 0 0 0
      vertex 0 7.965 25.4
      vertex 0 16.93 0
    endloop
  endfacet
  facet normal -1 0 0
    outer loop
      vertex 0 0 50.8
      vertex 0 7.965 25.4
      vertex 0 0 0
    endloop
  endfacet
  facet normal -1 0 0
    outer loop
      vertex 0 7.965 25.4
      vertex 0 0 50.8
      vertex 0 7.965 50.8
    endloop
  endfacet
  facet normal -1 -0 0
    outer loop
      vertex 0 16.93 50.8
      vertex 0 8.965 25.4
      vertex 0 8.965 50.8
    endloop
  endfacet
  facet normal 0 1 0
    outer loop
      vertex 16.93 16.93 50.8
      vertex 8.965 16.93 25.4
      vertex 8.965 16.93 50.8
    endloop
  endfacet
  facet normal 0 1 0
    outer loop
      vertex 8.965 16.93 25.4
      vertex 16.93 16.93 0
      vertex 7.965 16.93 25.4
    endloop
  endfacet
  facet normal 0 1 -0
    outer loop
      vertex 16.93 16.93 0
      vertex 8.965 16.93 25.4
      vertex 16.93 16.93 50.8
    endloop
  endfacet
  facet normal 0 1 -0
    outer loop
      vertex 7.965 16.93 25.4
      vertex 0 16.93 50.8
      vertex 7.965 16.93 50.8
    endloop
  endfacet
  facet normal 0 1 0
    outer loop
      vertex 7.965 16.93 25.4
      vertex 0 16.93 0
      vertex 0 16.93 50.8
    endloop
  endfacet
  facet normal 0 1 0
    outer loop
      vertex 0 16.93 0
      vertex 7.965 16.93 25.4
      vertex 16.93 16.93 0
    endloop
  endfacet
  facet normal 0 -1 0
    outer loop
      vertex 0 0 50.8
      vertex 7.965 0 25.4
      vertex 7.965 0 50.8
    endloop
  endfacet
  facet normal 0 -1 -0
    outer loop
      vertex 7.965 0 25.4
      vertex 0 0 0
      vertex 8.965 0 25.4
    endloop
  endfacet
  facet normal 0 -1 0
    outer loop
      vertex 0 0 0
      vertex 7.965 0 25.4
      vertex 0 0 50.8
    endloop
  endfacet
  facet normal 0 -1 0
    outer loop
      vertex 8.965 0 25.4
      vertex 16.93 0 50.8
      vertex 8.965 0 50.8
    endloop
  endfacet
  facet normal 0 -1 0
    outer loop
      vertex 8.965 0 25.4
      vertex 16.93 0 0
      vertex 16.93 0 50.8
    endloop
  endfacet
  facet normal 0 -1 0
    outer loop
      vertex 16.93 0 0
      vertex 8.965 0 25.4
      vertex 0 0 0
    endloop
  endfacet
  facet normal -1 0 0
    outer loop
      vertex 14.93 2 2
      vertex 14.93 14.93 50.8
      vertex 14.93 14.93 2
    endloop
  endfacet
  facet normal -1 -0 0
    outer loop
      vertex 14.93 14.93 50.8
      vertex 14.93 2 2
      vertex 14.93 2 50.8
    endloop
  endfacet
  facet normal -0 0 1
    outer loop
      vertex 2 14.93 2
      vertex 14.93 2 2
      vertex 14.93 14.93 2
    endloop
  endfacet
  facet normal 0 0 1
    outer loop
      vertex 14.93 2 2
      vertex 2 14.93 2
      vertex 2 2 2
    endloop
  endfacet
  facet normal 1 0 0
    outer loop
      vertex 2 7.965 50.8
      vertex 2 2 50.8
      vertex 2 7.965 25.4
    endloop
  endfacet
  facet normal 1 0 0
    outer loop
      vertex 2 8.965 25.4
      vertex 2 14.93 50.8
      vertex 2 8.965 50.8
    endloop
  endfacet
  facet normal 1 0 0
    outer loop
      vertex 2 14.93 50.8
      vertex 2 8.965 25.4
      vertex 2 14.93 2
    endloop
  endfacet
  facet normal 1 -0 0
    outer loop
      vertex 2 7.965 25.4
      vertex 2 14.93 2
      vertex 2 8.965 25.4
    endloop
  endfacet
  facet normal 1 0 0
    outer loop
      vertex 2 7.965 25.4
      vertex 2 2 2
      vertex 2 14.93 2
    endloop
  endfacet
  facet normal 1 0 0
    outer loop
      vertex 2 2 2
      vertex 2 7.965 25.4
      vertex 2 2 50.8
    endloop
  endfacet
  facet normal 0 -1 0
    outer loop
      vertex 2 14.93 50.8
      vertex 7.965 14.93 25.4
      vertex 7.965 14.93 50.8
    endloop
  endfacet
  facet normal 0 -1 -0
    outer loop
      vertex 7.965 14.93 25.4
      vertex 2 14.93 2
      vertex 8.965 14.93 25.4
    endloop
  endfacet
  facet normal 0 -1 0
    outer loop
      vertex 2 14.93 2
      vertex 7.965 14.93 25.4
      vertex 2 14.93 50.8
    endloop
  endfacet
  facet normal 0 -1 0
    outer loop
      vertex 8.965 14.93 25.4
      vertex 14.93 14.93 50.8
      vertex 8.965 14.93 50.8
    endloop
  endfacet
  facet normal 0 -1 0
    outer loop
      vertex 8.965 14.93 25.4
      vertex 14.93 14.93 2
      vertex 14.93 14.93 50.8
    endloop
  endfacet
  facet normal 0 -1 0
    outer loop
      vertex 14.93 14.93 2
      vertex 8.965 14.93 25.4
      vertex 2 14.93 2
    endloop
  endfacet
  facet normal 0 1 0
    outer loop
      vertex 14.93 2 50.8
      vertex 8.965 2 25.4
      vertex 8.965 2 50.8
    endloop
  endfacet
  facet normal 0 1 0
    outer loop
      vertex 8.965 2 25.4
      vertex 14.93 2 2
      vertex 7.965 2 25.4
    endloop
  endfacet
  facet normal 0 1 -0
    outer loop
      vertex 14.93 2 2
      vertex 8.965 2 25.4
      vertex 14.93 2 50.8
    endloop
  endfacet
  facet normal 0 1 -0
    outer loop
      vertex 7.965 2 25.4
      vertex 2 2 50.8
      vertex 7.965 2 50.8
    endloop
  endfacet
  facet normal 0 1 0
    outer loop
      vertex 7.965 2 25.4
      vertex 2 2 2
      vertex 2 2 50.8
    endloop
  endfacet
  facet normal 0 1 0
    outer loop
      vertex 2 2 2
      vertex 7.965 2 25.4
      vertex 14.93 2 2
    endloop
  endfacet
  facet normal -1 0 0
    outer loop
      vertex 8.965 0 25.4
      vertex 8.965 2 50.8
      vertex 8.965 2 25.4
    endloop
  endfacet
  facet normal -1 -0 0
    outer loop
      vertex 8.965 2 50.8
      vertex 8.965 0 25.4
      vertex 8.965 0 50.8
    endloop
  endfacet
  facet normal -0 0 1
    outer loop
      vertex 7.965 2 25.4
      vertex 8.965 0 25.4
      vertex 8.965 2 25.4
    endloop
  endfacet
  facet normal 0 0 1
    outer loop
      vertex 8.965 0 25.4
      vertex 7.965 2 25.4
      vertex 7.965 0 25.4
    endloop
  endfacet
  facet normal 1 -0 0
    outer loop
      vertex 7.965 0 50.8
      vertex 7.965 2 25.4
      vertex 7.965 2 50.8
    endloop
  endfacet
  facet normal 1 0 0
    outer loop
      vertex 7.965 2 25.4
      vertex 7.965 0 50.8
      vertex 7.965 0 25.4
    endloop
  endfacet
  facet normal -0 0 1
    outer loop
      vertex 16.83 8.965 25.4
      vertex 16.93 7.965 25.4
      vertex 16.93 8.965 25.4
    endloop
  endfacet
  facet normal 0 0 1
    outer loop
      vertex 16.93 7.965 25.4
      vertex 16.83 8.965 25.4
      vertex 16.83 7.965 25.4
    endloop
  endfacet
  facet normal 1 -0 0
    outer loop
      vertex 16.83 7.965 50.8
      vertex 16.83 8.965 25.4
      vertex 16.83 8.965 50.8
    endloop
  endfacet
  facet normal 1 0 0
    outer loop
      vertex 16.83 8.965 25.4
      vertex 16.83 7.965 50.8
      vertex 16.83 7.965 25.4
    endloop
  endfacet
  facet normal 0 -1 0
    outer loop
      vertex 16.83 8.965 25.4
      vertex 16.93 8.965 50.8
      vertex 16.83 8.965 50.8
    endloop
  endfacet
  facet normal 0 -1 -0
    outer loop
      vertex 16.93 8.965 50.8
      vertex 16.83 8.965 25.4
      vertex 16.93 8.965 25.4
    endloop
  endfacet
  facet normal 0 1 -0
    outer loop
      vertex 16.93 7.965 25.4
      vertex 16.83 7.965 50.8
      vertex 16.93 7.965 50.8
    endloop
  endfacet
  facet normal 0 1 0
    outer loop
      vertex 16.83 7.965 50.8
      vertex 16.93 7.965 25.4
      vertex 16.83 7.965 25.4
    endloop
  endfacet
  facet normal -1 0 0
    outer loop
      vertex 8.965 14.93 25.4
      vertex 8.965 16.93 50.8
      vertex 8.965 16.93 25.4
    endloop
  endfacet
  facet normal -1 -0 0
    outer loop
      vertex 8.965 16.93 50.8
      vertex 8.965 14.93 25.4
      vertex 8.965 14.93 50.8
    endloop
  endfacet
  facet normal -0 0 1
    outer loop
      vertex 7.965 16.93 25.4
      vertex 8.965 14.93 25.4
      vertex 8.965 16.93 25.4
    endloop
  endfacet
  facet normal 0 0 1
    outer loop
      vertex 8.965 14.93 25.4
      vertex 7.965 16.93 25.4
      vertex 7.965 14.93 25.4
    endloop
  endfacet
  facet normal 1 -0 0
    outer loop
      vertex 7.965 14.93 50.8
      vertex 7.965 16.93 25.4
      vertex 7.965 16.93 50.8
    endloop
  endfacet
  facet normal 1 0 0
    outer loop
      vertex 7.965 16.93 25.4
      vertex 7.965 14.93 50.8
      vertex 7.965 14.93 25.4
    endloop
  endfacet
  facet normal -0 0 1
    outer loop
      vertex 0 8.965 25.4
      vertex 2 7.965 25.4
      vertex 2 8.965 25.4
    endloop
  endfacet
  facet normal 0 0 1
    outer loop
      vertex 2 7.965 25.4
      vertex 0 8.965 25.4
      vertex 0 7.965 25.4
    endloop
  endfacet
  facet normal 0 -1 0
    outer loop
      vertex 0 8.965 25.4
      vertex 2 8.965 50.8
      vertex 0 8.965 50.8
    endloop
  endfacet
  facet normal 0 -1 -0
    outer loop
      vertex 2 8.965 50.8
      vertex 0 8.965 25.4
      vertex 2 8.965 25.4
    endloop
  endfacet
  facet normal 0 1 -0
    outer loop
      vertex 2 7.965 25.4
      vertex 0 7.965 50.8
      vertex 2 7.965 50.8
    endloop
  endfacet
  facet normal 0 1 0
    outer loop
      vertex 0 7.965 50.8
      vertex 2 7.965 25.4
      vertex 0 7.965 25.4
    endloop
  endfacet
endsolid OpenSCAD_Model
